<?xml version="1.0" standalone="no"?>
<!DOCTYPE svg PUBLIC "-//W3C//DTD SVG 20010904//EN"
 "http://www.w3.org/TR/2001/REC-SVG-20010904/DTD/svg10.dtd">
<svg version="1.0" xmlns="http://www.w3.org/2000/svg"
 width="564.000000pt" height="564.000000pt" viewBox="0 0 564.000000 564.000000"
 preserveAspectRatio="xMidYMid meet">
<metadata>
Created by potrace 1.14, written by Peter Selinger 2001-2017
</metadata>
<g transform="translate(0.000000,564.000000) scale(0.100000,-0.100000)"
fill="#000000" stroke="none">
<path d="M0 2820 l0 -2820 2820 0 2820 0 0 2820 0 2820 -1629 0 c-1545 0
-1629 -1 -1627 -17 1 -12 -6 -18 -19 -18 -13 0 -20 6 -19 18 2 16 -60 17
-1172 17 l-1174 0 0 -2820z m3568 1361 c428 -214 784 -396 790 -404 10 -12 13
-222 13 -953 1 -517 -3 -952 -7 -969 -4 -16 -17 -38 -28 -48 -18 -15 -657
-337 -836 -421 -30 -14 -62 -30 -70 -35 -8 -4 -35 -18 -59 -30 -24 -12 -55
-28 -70 -35 -114 -62 -481 -237 -507 -242 -38 -7 -7 -22 -934 439 -366 181
-668 335 -672 341 -4 6 -7 445 -6 976 1 865 3 966 17 978 27 21 151 83 151 75
0 -5 4 -3 8 3 8 13 1400 713 1419 713 7 1 363 -174 791 -388z m1536 -615 c9
-13 7 -20 -7 -31 -25 -18 -47 -8 -47 20 0 37 34 44 54 11z m-4029 -1566 c3 -5
1 -10 -4 -10 -6 0 -11 5 -11 10 0 6 2 10 4 10 3 0 8 -4 11 -10z"/>
<path d="M2015 3330 c3 -5 10 -10 16 -10 5 0 9 5 9 10 0 6 -7 10 -16 10 -8 0
-12 -4 -9 -10z"/>
<path d="M2097 3290 c3 -11 12 -20 20 -20 8 0 11 -4 8 -10 -11 -18 5 -32 21
-19 12 10 9 16 -18 40 -38 34 -38 34 -31 9z"/>
<path d="M2053 3273 c9 -2 17 -11 17 -19 0 -8 5 -14 10 -14 6 0 10 6 10 14 0
14 -22 27 -43 25 -7 -1 -4 -3 6 -6z"/>
<path d="M2165 3235 l-30 -27 29 7 c16 3 39 13 50 22 15 11 16 14 4 10 -9 -3
-18 -1 -20 4 -2 6 -17 -2 -33 -16z"/>
<path d="M1996 3237 c3 -10 9 -15 12 -12 3 3 0 11 -7 18 -10 9 -11 8 -5 -6z"/>
<path d="M2055 3080 c-3 -5 1 -10 9 -10 9 0 16 5 16 10 0 6 -4 10 -9 10 -6 0
-13 -4 -16 -10z"/>
<path d="M2280 2191 c0 -5 7 -11 14 -14 10 -4 13 -1 9 9 -6 15 -23 19 -23 5z"/>
<path d="M3012 2149 c19 -50 19 -59 2 -59 -16 0 -16 -1 2 -15 10 -8 15 -15 9
-15 -10 0 15 -20 25 -20 4 0 4 16 2 35 -2 19 -8 35 -13 35 -5 0 -9 9 -9 19 0
11 -5 23 -12 27 -7 5 -9 2 -6 -7z"/>
<path d="M2660 2121 c0 -15 29 -33 41 -25 9 5 10 1 7 -14 -5 -19 -2 -21 26
-19 34 2 49 -16 16 -21 -11 -2 -20 -9 -20 -15 0 -23 17 -38 33 -31 9 3 17 2
17 -4 0 -6 -6 -13 -12 -15 -8 -3 -6 -6 5 -6 14 -1 16 5 12 37 -3 30 0 44 16
61 l20 22 -24 -6 c-23 -6 -64 6 -119 36 -10 5 -18 5 -18 0z"/>
<path d="M2622 2080 c0 -14 2 -19 5 -12 2 6 2 18 0 25 -3 6 -5 1 -5 -13z"/>
<path d="M2630 2030 c0 -5 5 -10 10 -10 6 0 10 5 10 10 0 6 -4 10 -10 10 -5 0
-10 -4 -10 -10z"/>
<path d="M2680 2030 c0 -5 5 -10 10 -10 6 0 10 5 10 10 0 6 -4 10 -10 10 -5 0
-10 -4 -10 -10z"/>
<path d="M3027 2013 c-12 -11 -8 -23 7 -23 8 0 16 7 20 15 5 15 -14 21 -27 8z"/>
<path d="M2700 1980 c0 -5 4 -10 9 -10 6 0 13 5 16 10 3 6 -1 10 -9 10 -9 0
-16 -4 -16 -10z"/>
<path d="M2837 1963 c-12 -11 -8 -23 8 -23 8 0 15 7 15 15 0 16 -12 20 -23 8z"/>
<path d="M2720 1956 c0 -2 7 -6 15 -10 8 -3 15 -1 15 4 0 6 -7 10 -15 10 -8 0
-15 -2 -15 -4z"/>
<path d="M3005 1930 c-3 -5 -1 -10 4 -10 6 0 11 5 11 10 0 6 -2 10 -4 10 -3 0
-8 -4 -11 -10z"/>
<path d="M2710 1904 c0 -14 3 -14 15 -4 8 7 15 14 15 16 0 2 -7 4 -15 4 -8 0
-15 -7 -15 -16z"/>
<path d="M2770 1901 c0 -6 4 -12 8 -15 5 -3 9 1 9 9 0 8 -4 15 -9 15 -4 0 -8
-4 -8 -9z"/>
<path d="M2834 1899 c-4 -7 0 -9 14 -5 11 4 23 2 27 -4 3 -5 12 -10 18 -10 16
1 -23 30 -39 30 -7 0 -16 -5 -20 -11z"/>
<path d="M2645 1873 c-19 -15 -19 -15 10 -8 37 8 57 25 30 25 -11 0 -29 -8
-40 -17z"/>
<path d="M2845 1870 c3 -5 8 -10 11 -10 2 0 4 5 4 10 0 6 -5 10 -11 10 -5 0
-7 -4 -4 -10z"/>
<path d="M2770 1839 c0 -6 -7 -9 -15 -5 -16 6 -21 -9 -6 -18 4 -3 11 -19 14
-36 4 -16 11 -30 17 -30 7 0 8 6 0 19 -15 29 -12 39 5 17 14 -19 15 -19 35 -1
15 14 17 21 8 26 -7 4 -17 5 -23 2 -5 -4 -7 -3 -3 2 4 4 1 14 -7 21 -16 17
-25 18 -25 3z"/>
<path d="M2677 1823 c-23 -6 -18 -35 6 -39 9 -1 17 2 17 6 0 5 3 15 6 24 6 16
3 17 -29 9z"/>
<path d="M2630 1779 c0 -21 26 -43 40 -34 16 10 12 28 -5 21 -8 -3 -19 2 -24
12 -9 15 -10 15 -11 1z"/>
<path d="M2610 1729 c0 -5 4 -8 9 -4 5 3 12 1 16 -5 3 -5 12 -10 18 -10 7 0 3
7 -7 15 -23 18 -36 19 -36 4z"/>
<path d="M2820 1669 c0 -5 5 -7 10 -4 6 3 10 8 10 11 0 2 -4 4 -10 4 -5 0 -10
-5 -10 -11z"/>
<path d="M2777 1300 c-3 -13 -2 -30 2 -38 7 -13 10 -11 15 6 4 11 17 23 29 25
19 4 18 4 -5 6 -14 0 -28 7 -30 13 -3 7 -7 2 -11 -12z"/>
<path d="M2670 1222 c0 -4 9 -8 20 -9 11 -1 20 2 20 8 0 5 -9 9 -20 9 -11 0
-20 -4 -20 -8z"/>
<path d="M2678 1193 c7 -3 16 -2 19 1 4 3 -2 6 -13 5 -11 0 -14 -3 -6 -6z"/>
<path d="M2628 1173 c7 -3 16 -2 19 1 4 3 -2 6 -13 5 -11 0 -14 -3 -6 -6z"/>
</g>
</svg>
